<svg width="131" height="48" viewBox="0 0 131 48" fill="none" xmlns="http://www.w3.org/2000/svg">
<path d="M0 32.8018H14.5421V29.0842H4.37358V10.8245H0V32.8018Z" fill="#F89C1B"/>
<path fill-rule="evenodd" clip-rule="evenodd" d="M16.6748 10.8245H25.75C29.9049 10.8245 32.7477 13.722 32.7477 17.8769C32.7477 21.9772 29.9595 24.7106 25.75 24.7106H20.9937V32.8018H16.6748V10.8245ZM28.9755 17.7676C28.9755 15.5808 27.5541 14.3781 25.0393 14.3781H20.9937V21.2664H25.0393C27.6087 21.2664 28.9755 20.009 28.9755 17.7676Z" fill="#F89C1B"/>
<path fill-rule="evenodd" clip-rule="evenodd" d="M58.7701 21.6493H54.9979C55.1619 17.9864 57.458 16.1823 62.1049 16.1823C66.8612 16.1823 68.9933 18.1504 68.9933 22.524V32.8019H65.2211C65.1118 32.4192 65.0024 31.9272 65.0024 31.4898L64.9478 31.1071L64.6744 31.3805C63.6357 32.5832 61.9409 32.9112 59.9181 32.9112C56.474 32.9112 54.4512 31.7085 54.4512 28.8657C54.4512 24.3828 57.294 23.7814 61.9409 23.1254C64.1824 22.7973 64.8384 22.36 64.8384 21.1026C64.8384 19.8999 63.745 19.1891 61.8863 19.1891C60.0822 19.1891 59.0434 20.0092 58.7701 21.6493ZM64.9478 26.6789V24.4374L64.6744 24.7654C64.2917 25.1481 63.581 25.3668 61.9409 25.6948C59.4261 26.1322 58.4967 26.8976 58.4967 28.4283C58.4967 29.7404 59.3168 30.4511 60.7929 30.4511C63.089 30.4511 64.8931 28.811 64.9478 26.6789Z" fill="#F89C1B"/>
<path d="M81.7319 32.8019H85.7775V21.5399C85.7775 18.2051 83.7547 16.1823 80.4745 16.1823C78.0144 16.1823 76.3196 17.057 75.2809 18.9158L75.0075 19.5172V16.6197H71.1807V32.8019H75.1715V23.5081C75.1715 20.8839 76.3743 19.5172 78.7251 19.5172C81.0212 19.5172 81.7319 20.3372 81.7319 22.9614V32.8019Z" fill="#F89C1B"/>
<path d="M98.0231 32.8018H102.561L97.203 22.4692H97.2577L102.615 16.6195H97.6951L92.0094 23.1799V10.8245H87.9639V32.8018H92.0094V27.6628L94.3602 25.2573V25.312L98.0231 32.8018Z" fill="#F89C1B"/>
<path fill-rule="evenodd" clip-rule="evenodd" d="M34.8789 10.8245H45.3208C49.3664 10.8245 51.6625 13.0113 51.6625 16.7289C51.6625 17.7129 51.3892 18.6423 50.7878 19.4077L50.7331 19.517C50.0224 20.4464 49.257 20.7744 49.2024 20.7744L48.765 20.9384L49.2024 21.0478C49.7491 21.2664 50.2958 21.6491 50.6238 21.9225L50.6784 21.9772C50.7513 22.0501 50.806 22.1047 50.8425 22.1412L50.8971 22.1958C51.8265 23.1252 52.3185 24.5466 52.3185 26.2961C52.3185 30.5056 49.5304 32.8018 44.4461 32.8018H34.8789V10.8245ZM48.273 25.968C48.273 23.9999 47.0702 22.9612 44.8288 22.9612H38.8698V29.3576H44.7741C46.8516 29.3576 48.273 27.9908 48.273 25.968ZM47.6716 16.9475C47.6716 15.1434 46.6876 14.3234 44.5008 14.3234H38.8698V19.517H44.7741C46.6329 19.517 47.6716 18.5876 47.6716 16.9475Z" fill="#F89C1B"/>
<path d="M116.829 17.3303C112.072 17.3303 108.191 13.4487 108.191 8.63776H103.489C103.489 16.0182 109.448 21.9772 116.829 21.9772C124.209 21.9772 130.168 16.0182 130.168 8.63776H125.521C125.521 13.4487 121.64 17.3303 116.829 17.3303Z" fill="#F89C1B"/>
<path d="M121.039 8.63776C121.039 8.85644 120.93 8.96578 120.93 8.96578C120.875 9.07512 119.891 9.62182 118.852 10.6605C117.814 11.6993 117.267 12.6833 117.158 12.738C117.158 12.738 117.048 12.8473 116.83 12.8473C116.611 12.8473 116.502 12.738 116.502 12.738C116.447 12.6833 115.846 11.6993 114.807 10.6605C113.768 9.62182 112.839 9.07512 112.784 8.96578C112.784 8.96578 112.62 8.85644 112.62 8.63776H121.039Z" fill="#F89C1B"/>
<path d="M116.829 0C112.073 0 108.191 3.88154 108.191 8.63781H112.62C112.62 8.41913 112.784 8.3098 112.784 8.3098C112.838 8.25513 113.822 7.65376 114.806 6.61504C115.845 5.63098 116.447 4.64692 116.501 4.59225C116.501 4.59225 116.611 4.42825 116.829 4.42825C117.048 4.42825 117.157 4.59225 117.157 4.59225C117.267 4.64692 117.813 5.63098 118.852 6.61504C119.891 7.65376 120.875 8.25513 120.929 8.3098C120.929 8.3098 121.039 8.41913 121.039 8.63781H125.522C125.522 3.88154 121.64 0 116.829 0Z" fill="#F89C1B"/>
<path d="M34.7158 44.3918L36.7933 44.2278C36.9026 44.9202 37.1395 45.4123 37.504 45.7038C37.9049 46.0319 38.4151 46.1959 39.0347 46.1959C39.7272 46.1959 40.2375 46.0501 40.5655 45.7585C40.8935 45.4669 41.0575 45.1389 41.0575 44.7745C41.0575 44.5193 41.0028 44.3007 40.8935 44.1184C40.7477 43.9726 40.4926 43.8268 40.1281 43.6811C39.873 43.6082 39.3081 43.4624 38.4334 43.2437C37.3035 42.9521 36.5199 42.6059 36.0826 42.205C35.4265 41.6218 35.0985 40.9294 35.0985 40.1275C35.0985 39.5808 35.2443 39.0888 35.5359 38.6515C35.8274 38.1777 36.2648 37.8132 36.8479 37.5581C37.4311 37.3394 38.1053 37.23 38.8707 37.23C40.1828 37.23 41.1668 37.5034 41.8229 38.0501C42.5154 38.6332 42.8616 39.3986 42.8616 40.3462L40.7842 40.4556C40.7113 39.9089 40.5108 39.5262 40.1828 39.3075C39.8912 39.0524 39.4539 38.9248 38.8707 38.9248C38.2511 38.9248 37.7773 39.0524 37.4493 39.3075C37.2306 39.4897 37.1213 39.7084 37.1213 39.9635C37.1213 40.2187 37.2124 40.4373 37.3946 40.6196C37.6862 40.8382 38.3422 41.0569 39.3627 41.2756C40.3832 41.5307 41.1304 41.7858 41.6042 42.041C42.1144 42.2961 42.4971 42.6423 42.7523 43.0797C43.0438 43.5535 43.1896 44.1184 43.1896 44.7745C43.1896 45.3576 43.0256 45.9043 42.6976 46.4145C42.3696 46.9612 41.8958 47.3622 41.2762 47.6173C40.6566 47.8724 39.9094 48 39.0347 48C37.7227 48 36.7022 47.6902 35.9732 47.0706C35.2807 46.451 34.8616 45.5581 34.7158 44.3918Z" fill="#EC1C24"/>
<path fill-rule="evenodd" clip-rule="evenodd" d="M49.3128 45.3759L51.281 45.7039C51.0258 46.4329 50.6249 46.9978 50.0782 47.3987C49.5315 47.7632 48.839 47.9454 48.0008 47.9454C46.6887 47.9454 45.7229 47.5262 45.1033 46.688C44.593 45.9955 44.3379 45.1208 44.3379 44.0638C44.3379 42.8247 44.6659 41.8588 45.3219 41.1663C45.978 40.4374 46.8163 40.0729 47.8368 40.0729C48.9302 40.0729 49.8049 40.4556 50.4609 41.221C51.1169 41.9499 51.4267 43.0798 51.3903 44.6105H46.4153C46.4153 45.1937 46.5794 45.6493 46.9074 45.9773C47.1989 46.3053 47.5816 46.4693 48.0554 46.4693C48.347 46.4693 48.6021 46.3782 48.8208 46.196C49.0395 46.0502 49.2035 45.7768 49.3128 45.3759ZM49.4222 43.3531C49.4222 42.8064 49.2764 42.3691 48.9848 42.0411C48.6932 41.7495 48.347 41.6037 47.9461 41.6037C47.5087 41.6037 47.1443 41.7677 46.8527 42.0957C46.5611 42.4237 46.4153 42.8429 46.4153 43.3531H49.4222Z" fill="#EC1C24"/>
<path d="M59.5905 42.4784L57.6224 42.8611C57.5495 42.4602 57.4037 42.1504 57.185 41.9317C56.9663 41.7495 56.6566 41.6584 56.2556 41.6584C55.7818 41.6584 55.3992 41.8224 55.1076 42.1504C54.7796 42.5149 54.6156 43.098 54.6156 43.8998C54.6156 44.7745 54.7796 45.4123 55.1076 45.8133C55.3992 46.1777 55.8001 46.36 56.3103 46.36C56.6748 46.36 56.9846 46.2506 57.2397 46.0319C57.4584 45.8133 57.6224 45.4306 57.7317 44.8839L59.6998 45.2666C59.4812 46.1413 59.0985 46.8155 58.5518 47.2893C57.9686 47.7267 57.185 47.9454 56.201 47.9454C55.1076 47.9454 54.2329 47.5991 53.5768 46.9067C52.9208 46.2142 52.5928 45.2483 52.5928 44.0092C52.5928 42.77 52.9208 41.8042 53.5768 41.1117C54.2329 40.4192 55.1258 40.0729 56.2556 40.0729C57.1668 40.0729 57.8957 40.2734 58.4424 40.6743C58.9891 41.0752 59.3718 41.6766 59.5905 42.4784Z" fill="#EC1C24"/>
<path d="M66.096 47.7813V46.6879C65.8045 47.0888 65.44 47.3986 65.0026 47.6173C64.5653 47.836 64.0915 47.9453 63.5812 47.9453C63.071 47.9453 62.6154 47.836 62.2145 47.6173C61.8136 47.3986 61.522 47.0888 61.3398 46.6879C61.1575 46.287 61.0664 45.7403 61.0664 45.0478V40.2369H63.0892V43.7357C63.0892 44.7927 63.1256 45.4305 63.1985 45.6492C63.2714 45.9043 63.399 46.1048 63.5812 46.2505C63.7634 46.3963 64.0003 46.4692 64.2919 46.4692C64.6564 46.4692 64.9662 46.3599 65.2213 46.1412C65.5129 45.959 65.6951 45.7403 65.768 45.4852C65.8773 45.1936 65.932 44.5193 65.932 43.4624V40.2369H67.9548V47.7813H66.096Z" fill="#EC1C24"/>
<path d="M71.8909 47.7814H69.9229V40.237H71.7816V41.3304C72.0732 40.8201 72.3465 40.4921 72.6017 40.3463C72.8568 40.1641 73.1484 40.0729 73.4764 40.0729C73.9502 40.0729 74.3875 40.2005 74.7885 40.4556L74.1871 42.2051C73.8591 41.9864 73.5493 41.877 73.2577 41.877C72.9661 41.877 72.7292 41.9499 72.547 42.0957C72.3283 42.2415 72.1643 42.5149 72.055 42.9158C71.9456 43.3167 71.8909 44.1732 71.8909 45.4853V47.7814Z" fill="#EC1C24"/>
<path d="M75.6631 39.2529V37.3941H77.6312V39.2529H75.6631ZM75.6631 47.7813V40.2369H77.6859V47.7813H75.6631Z" fill="#EC1C24"/>
<path d="M83.1529 40.2369V41.8223H81.7862V44.8838C81.7862 45.5034 81.8044 45.8679 81.8408 45.9772C81.8773 46.0501 81.9319 46.123 82.0048 46.1959C82.1142 46.2688 82.2235 46.3052 82.3329 46.3052C82.5151 46.3052 82.7884 46.2506 83.1529 46.1412L83.3169 47.672C82.8431 47.8542 82.3146 47.9453 81.7315 47.9453C81.367 47.9453 81.039 47.8906 80.7474 47.7813C80.4559 47.672 80.2554 47.5262 80.1461 47.344C80.0003 47.1253 79.9092 46.8519 79.8727 46.5239C79.7998 46.3052 79.7634 45.8496 79.7634 45.1572V41.8223H78.8887V40.2369H79.7634V38.7608L81.7862 37.6127V40.2369H83.1529Z" fill="#EC1C24"/>
<path d="M84.5195 39.2529V37.3941H86.5423V39.2529H84.5195ZM84.5195 47.7813V40.2369H86.4876V47.7813H84.5195Z" fill="#EC1C24"/>
<path fill-rule="evenodd" clip-rule="evenodd" d="M92.9388 45.3759L94.9069 45.7039C94.6518 46.4329 94.2509 46.9978 93.7042 47.3987C93.1575 47.7632 92.465 47.9454 91.6268 47.9454C90.3511 47.9454 89.3853 47.5262 88.7293 46.688C88.2555 45.9955 88.0186 45.1208 88.0186 44.0638C88.0186 42.8247 88.3466 41.8588 89.0026 41.1663C89.6222 40.4374 90.4423 40.0729 91.4628 40.0729C92.5926 40.0729 93.4673 40.4556 94.0869 41.221C94.7429 41.9499 95.0527 43.0798 95.0163 44.6105H90.0413C90.0413 45.1937 90.2053 45.6493 90.5334 45.9773C90.8249 46.3053 91.2076 46.4693 91.6814 46.4693C91.973 46.4693 92.2281 46.3782 92.4468 46.196C92.6655 46.0502 92.8295 45.7768 92.9388 45.3759ZM93.0482 43.3531C93.0482 42.8064 92.9024 42.3691 92.6108 42.0411C92.3193 41.7495 91.973 41.6037 91.5721 41.6037C91.1347 41.6037 90.7703 41.7677 90.4787 42.0957C90.2236 42.4237 90.096 42.8429 90.096 43.3531H93.0482Z" fill="#EC1C24"/>
<path d="M95.9453 45.6493L97.9681 45.3212C98.041 45.7221 98.205 46.0319 98.4601 46.2506C98.7517 46.4329 99.1162 46.524 99.5535 46.524C100.1 46.524 100.501 46.4329 100.756 46.2506C100.938 46.1048 101.03 45.9226 101.03 45.7039C101.03 45.5581 100.975 45.4306 100.866 45.3212C100.756 45.2483 100.538 45.1572 100.21 45.0479C98.6059 44.7199 97.5854 44.4101 97.1481 44.1185C96.5285 43.6812 96.2187 43.1162 96.2187 42.4237C96.2187 41.7677 96.492 41.2028 97.0387 40.729C97.549 40.2916 98.3326 40.0729 99.3895 40.0729C100.446 40.0729 101.23 40.237 101.74 40.565C102.214 40.9294 102.542 41.4397 102.724 42.0957L100.866 42.4237C100.793 42.1322 100.647 41.9135 100.428 41.7677C100.21 41.5855 99.8815 41.4944 99.4442 41.4944C98.9339 41.4944 98.5512 41.5672 98.2961 41.713C98.1503 41.8224 98.0774 41.9682 98.0774 42.1504C98.0774 42.2962 98.1503 42.4237 98.2961 42.5331C98.4784 42.6424 99.0979 42.8246 100.155 43.0798C101.212 43.2985 101.959 43.59 102.396 43.9545C102.797 44.319 102.998 44.811 102.998 45.4306C102.998 46.1231 102.706 46.7244 102.123 47.2347C101.54 47.7085 100.683 47.9454 99.5535 47.9454C98.533 47.9454 97.7312 47.7449 97.1481 47.344C96.5285 46.9431 96.1275 46.3782 95.9453 45.6493Z" fill="#EC1C24"/>
</svg>
