<svg width="240" height="90" viewBox="0 0 240 90" fill="none" xmlns="http://www.w3.org/2000/svg">
<path d="M0.950195 61.4H27.5502V54.6H8.9502V21.2H0.950195V61.4Z" fill="#6E361A"/>
<path fill-rule="evenodd" clip-rule="evenodd" d="M31.4502 21.2H48.0502C55.6502 21.2 60.8502 26.5 60.8502 34.1C60.8502 41.6 55.7502 46.6 48.0502 46.6H39.3502V61.4H31.4502V21.2ZM53.9502 33.9C53.9502 29.9 51.3502 27.7 46.7502 27.7H39.3502V40.3H46.7502C51.4502 40.3 53.9502 38 53.9502 33.9Z" fill="#6E361A"/>
<path fill-rule="evenodd" clip-rule="evenodd" d="M108.45 40.7H101.55C101.85 34 106.05 30.7 114.55 30.7C123.25 30.7 127.15 34.3 127.15 42.3V61.1H120.25C120.05 60.4 119.85 59.5 119.85 58.7L119.75 58L119.25 58.5C117.35 60.7 114.25 61.4 110.55 61.4C104.25 61.4 100.55 59.1 100.55 53.9C100.55 45.7 105.75 44.6 114.25 43.4C118.35 42.9 119.55 42 119.55 39.7C119.55 37.6 117.55 36.2 114.15 36.2C110.85 36.2 108.95 37.7 108.45 40.7ZM119.75 49.9V45.9L119.25 46.4C118.55 47.1 117.25 47.5 114.25 48.1C109.65 49 107.95 50.3 107.95 53.1C107.95 55.6 109.45 56.8 112.15 56.8C116.35 56.8 119.65 53.8 119.75 49.9Z" fill="#6E361A"/>
<path d="M150.45 61.4H157.85V40.8C157.85 34.8 154.15 31 148.15 31C143.65 31 140.55 32.7 138.65 36.1L138.15 37.1V31.8H131.15V61.4H138.45V44.4C138.45 39.6 140.65 37.2 144.95 37.2C149.15 37.2 150.45 38.7 150.45 43.4V61.4Z" fill="#6E361A"/>
<path d="M180.25 61.4H188.55L178.75 42.6L178.85 42.5L188.65 31.8H179.65L169.25 43.8V21.3H161.85V61.4H169.25V52L173.55 47.6V47.7L180.25 61.4Z" fill="#6E361A"/>
<path fill-rule="evenodd" clip-rule="evenodd" d="M64.75 21.2H83.85C91.25 21.2 95.45 25.2 95.45 32.1C95.45 33.8 94.95 35.5 93.85 36.9L93.75 37.1C92.45 38.8 91.05 39.4 90.95 39.4L90.15 39.7L90.95 40C91.95 40.3 92.95 41 93.55 41.6L93.65 41.7C93.7833 41.7667 93.8833 41.8333 93.95 41.9L94.05 42C95.75 43.8 96.65 46.3 96.65 49.6C96.65 57.2 91.55 61.4 82.25 61.4H64.75V21.2ZM89.25 48.9C89.25 45.4 87.05 43.5 82.95 43.5H72.05V55.1H82.85C86.65 55.1 89.25 52.6 89.25 48.9ZM88.15 32.4C88.15 29.1 86.35 27.7 82.35 27.7H72.05V37.1H82.85C86.25 37.1 88.15 35.5 88.15 32.4Z" fill="#6E361A"/>
<path d="M214.65 32.8C205.95 32.8 198.85 25.7 198.85 17H190.25C190.25 30.4 201.15 41.4 214.65 41.4C228.15 41.4 239.05 30.4 239.05 17H230.55C230.55 25.7 223.45 32.8 214.65 32.8Z" fill="#6E361A"/>
<path d="M222.35 17C222.35 17.3 222.15 17.6 222.15 17.6C222.05 17.7 220.25 18.8 218.35 20.6C216.45 22.5 215.45 24.3 215.25 24.4C215.25 24.4 215.05 24.7 214.65 24.7C214.25 24.7 214.05 24.4 214.05 24.4C213.95 24.3 212.85 22.5 210.95 20.6C209.05 18.8 207.35 17.7 207.25 17.6C207.25 17.6 206.95 17.3 206.95 17H222.35Z" fill="#6E361A"/>
<path d="M214.65 1.09998C205.95 1.09998 198.85 8.19998 198.85 17H206.95C206.95 16.6 207.25 16.3 207.25 16.3C207.35 16.2 209.15 15.1 210.95 13.3C212.85 11.4 213.95 9.59998 214.05 9.49998C214.05 9.49998 214.25 9.19998 214.65 9.19998C215.05 9.19998 215.25 9.49998 215.25 9.49998C215.45 9.59998 216.45 11.4 218.35 13.3C220.25 15.1 222.05 16.2 222.15 16.3C222.15 16.3 222.35 16.6 222.35 17H230.55C230.55 8.19998 223.45 1.09998 214.65 1.09998Z" fill="#6E361A"/>
<path d="M64.4502 82.4L68.2502 82C68.4502 83.2667 68.8835 84.2 69.5502 84.8C70.2835 85.3334 71.2169 85.6 72.3502 85.6C73.6169 85.6 74.5502 85.3667 75.1502 84.9C75.7502 84.3667 76.0502 83.7333 76.0502 83C76.0502 82.5333 75.9502 82.1667 75.7502 81.9C75.4835 81.5667 75.0169 81.2667 74.3502 81C73.8835 80.8667 72.8502 80.6 71.2502 80.2C69.1835 79.6667 67.7502 79.0334 66.9502 78.3C65.7502 77.3 65.1502 76.0333 65.1502 74.5C65.1502 73.5 65.4169 72.6 65.9502 71.8C66.4835 70.9334 67.2835 70.3 68.3502 69.9C69.4169 69.4333 70.6502 69.2 72.0502 69.2C74.4502 69.2 76.2502 69.7334 77.4502 70.8C78.7169 71.8 79.3502 73.2 79.3502 75L75.5502 75.1C75.4169 74.1667 75.0502 73.4667 74.4502 73C73.9169 72.6 73.1169 72.4 72.0502 72.4C70.9169 72.4 70.0502 72.6333 69.4502 73.1C69.0502 73.3667 68.8502 73.7333 68.8502 74.2C68.8502 74.6667 69.0169 75.0667 69.3502 75.4C69.8835 75.8 71.0835 76.2333 72.9502 76.7C74.8169 77.1 76.1835 77.5333 77.0502 78C77.9835 78.4667 78.6835 79.1333 79.1502 80C79.6835 80.8 79.9502 81.8 79.9502 83C79.9502 84.0667 79.6502 85.1 79.0502 86.1C78.4502 87.0333 77.5835 87.7333 76.4502 88.2C75.3169 88.6667 73.9502 88.9 72.3502 88.9C69.9502 88.9 68.0835 88.3333 66.7502 87.2C65.4835 86.1333 64.7169 84.5333 64.4502 82.4Z" fill="#FF0000"/>
<path fill-rule="evenodd" clip-rule="evenodd" d="M91.1503 84.2L94.7503 84.8C94.2836 86.1334 93.5503 87.1334 92.5503 87.8C91.5503 88.5334 90.2836 88.9 88.7503 88.9C86.3503 88.9 84.5836 88.1 83.4503 86.5C82.517 85.2334 82.0503 83.6667 82.0503 81.8C82.0503 79.4667 82.6503 77.6667 83.8503 76.4C85.0503 75.0667 86.5836 74.4 88.4503 74.4C90.4503 74.4 92.0503 75.1 93.2503 76.5C94.4503 77.8334 95.017 79.9 94.9503 82.7H85.8503C85.8503 83.7667 86.1503 84.6 86.7503 85.2C87.2836 85.8 87.9836 86.1 88.8503 86.1C89.3836 86.1 89.8503 85.9667 90.2503 85.7C90.6503 85.3667 90.9503 84.8667 91.1503 84.2ZM91.3503 80.5C91.3503 79.4334 91.0836 78.6334 90.5503 78.1C90.017 77.5 89.3836 77.2 88.6503 77.2C87.8503 77.2 87.1836 77.5 86.6503 78.1C86.117 78.7 85.8503 79.5 85.8503 80.5H91.3503Z" fill="#FF0000"/>
<path d="M109.95 78.8L106.35 79.5C106.217 78.7667 105.95 78.2334 105.55 77.9C105.15 77.5 104.584 77.3 103.85 77.3C102.984 77.3 102.284 77.6334 101.75 78.3C101.15 78.9 100.85 79.9334 100.85 81.4C100.85 83.0667 101.15 84.2334 101.75 84.9C102.284 85.5667 103.017 85.9 103.95 85.9C104.617 85.9 105.184 85.7 105.65 85.3C106.05 84.9 106.35 84.2334 106.55 83.3L110.15 83.9C109.75 85.5 109.05 86.7334 108.05 87.6C106.984 88.4667 105.55 88.9 103.75 88.9C101.75 88.9 100.15 88.2667 98.9504 87C97.7504 85.6667 97.1504 83.9 97.1504 81.7C97.1504 79.4334 97.7504 77.6667 98.9504 76.4C100.15 75.0667 101.784 74.4 103.85 74.4C105.517 74.4 106.85 74.7667 107.85 75.5C108.85 76.2334 109.55 77.3334 109.95 78.8Z" fill="#FF0000"/>
<path d="M121.85 88.6V86.5C121.317 87.2334 120.65 87.8 119.85 88.2C119.05 88.6667 118.184 88.9001 117.25 88.9001C116.317 88.9001 115.484 88.7 114.75 88.3C114.017 87.8334 113.484 87.2334 113.15 86.5C112.817 85.7667 112.65 84.7667 112.65 83.5V74.8H116.35V81.1C116.35 83.0334 116.417 84.2334 116.55 84.7C116.684 85.1 116.917 85.4334 117.25 85.7C117.584 85.9667 118.017 86.1 118.55 86.1C119.217 86.1 119.784 85.9334 120.25 85.6C120.784 85.2667 121.117 84.8334 121.25 84.3C121.45 83.7667 121.55 82.5334 121.55 80.6V74.8H125.25V88.6H121.85Z" fill="#FF0000"/>
<path d="M132.45 88.9001H128.85V75.1001H132.25V77.0001C132.783 76.0667 133.283 75.4667 133.75 75.2001C134.217 74.8667 134.75 74.7001 135.35 74.7001C136.217 74.7001 137.017 74.9334 137.75 75.4001L136.65 78.6001C136.05 78.2001 135.483 78.0001 134.95 78.0001C134.417 78.0001 133.983 78.1334 133.65 78.4001C133.25 78.7334 132.95 79.2667 132.75 80.0001C132.55 80.7334 132.45 82.2667 132.45 84.6001V88.9001Z" fill="#FF0000"/>
<path d="M139.35 73.2V69.8H142.95V73.2H139.35ZM139.35 88.9V75.1001H143.05V88.9H139.35Z" fill="#FF0000"/>
<path d="M153.05 74.8V77.7H150.55V83.2C150.55 84.3334 150.583 85 150.65 85.2C150.717 85.4 150.817 85.5667 150.95 85.7C151.15 85.7667 151.35 85.8 151.55 85.8C151.883 85.8 152.383 85.7 153.05 85.5L153.35 88.3C152.483 88.7 151.517 88.9 150.45 88.9C149.783 88.9 149.183 88.7667 148.65 88.5C148.117 88.3 147.75 88.0334 147.55 87.7C147.283 87.3667 147.117 86.9 147.05 86.3C146.917 85.8334 146.85 84.9667 146.85 83.7V77.7H145.25V74.8H146.85V72L150.55 69.9V74.8H153.05Z" fill="#FF0000"/>
<path d="M155.55 73.2V69.8H159.25V73.2H155.55ZM155.55 88.9V75.1001H159.15V88.9H155.55Z" fill="#FF0000"/>
<path fill-rule="evenodd" clip-rule="evenodd" d="M170.95 84.2L174.55 84.8C174.084 86.1334 173.35 87.1334 172.35 87.8C171.35 88.5334 170.084 88.9 168.55 88.9C166.217 88.9 164.45 88.1 163.25 86.5C162.384 85.2334 161.95 83.6667 161.95 81.8C161.95 79.4667 162.55 77.6667 163.75 76.4C164.884 75.0667 166.384 74.4 168.25 74.4C170.317 74.4 171.917 75.1 173.05 76.5C174.25 77.8334 174.817 79.9 174.75 82.7H165.65C165.65 83.7667 165.95 84.6 166.55 85.2C167.084 85.8 167.784 86.1 168.65 86.1C169.184 86.1 169.65 85.9667 170.05 85.7C170.45 85.3667 170.75 84.8667 170.95 84.2ZM171.15 80.5C171.15 79.4334 170.884 78.6334 170.35 78.1C169.817 77.5 169.184 77.2 168.45 77.2C167.65 77.2 166.984 77.5 166.45 78.1C165.984 78.7 165.75 79.5 165.75 80.5H171.15Z" fill="#FF0000"/>
<path d="M176.45 84.6L180.15 84.1C180.284 84.7667 180.584 85.3 181.05 85.7C181.584 86.0334 182.25 86.2 183.05 86.2C184.05 86.2 184.784 86.0334 185.25 85.7C185.584 85.4334 185.75 85.1 185.75 84.7C185.75 84.4334 185.65 84.2 185.45 84C185.25 83.8667 184.85 83.7334 184.25 83.6C181.317 82.9334 179.45 82.3334 178.65 81.8C177.517 81.0667 176.95 80.0334 176.95 78.7C176.95 77.5 177.45 76.5 178.45 75.7C179.384 74.8334 180.817 74.4 182.75 74.4C184.684 74.4 186.117 74.7334 187.05 75.4C187.917 76 188.517 76.9 188.85 78.1L185.45 78.7C185.317 78.1667 185.05 77.7667 184.65 77.5C184.25 77.2334 183.65 77.1 182.85 77.1C181.917 77.1 181.217 77.2334 180.75 77.5C180.484 77.7 180.35 77.9334 180.35 78.2C180.35 78.4667 180.484 78.7 180.75 78.9C181.084 79.1 182.217 79.4334 184.15 79.9C186.084 80.3667 187.45 80.9 188.25 81.5C188.984 82.1667 189.35 83.0667 189.35 84.2C189.35 85.4667 188.817 86.5667 187.75 87.5C186.684 88.4333 185.117 88.9 183.05 88.9C181.184 88.9 179.717 88.5 178.65 87.7C177.517 86.9667 176.784 85.9334 176.45 84.6Z" fill="#FF0000"/>
</svg>
